<?xml version="1.0" standalone="no"?>
<svg xmlns="http://www.w3.org/2000/svg" viewBox="0 0 127.801 36" width="127.801" height="36"><g fill="#000000" color="#000000" transform="translate(0 4) scale(0.5833334)"><svg width="48.0" height="48.0" x="0.0" y="0.0" viewBox="0 0 48 48"><path fill="currentColor" fill-rule="nonzero" d="M24 .21L.21 24 24 47.79 47.79 24 24 .21zM5.82 24L24 5.82l7.69 7.69-2.8 2.8L24 11.43 11.43 24l4.88 4.89-2.8 2.8L5.82 24zm25.15 0L24 30.97 17.03 24 24 17.03 30.97 24zM16.31 34.49l2.8-2.8L24 36.57 36.57 24l-4.89-4.89 2.8-2.8 7.7 7.69L24 42.18l-7.69-7.69z"></path></svg></g><path fill="#000000" fill-rule="nonzero" d="M5.88 18.67Q3.70 18.67 2.20 17.46Q0.70 16.25 0 14.21L0 14.21L2.98 12.82L3.26 13.30Q3.96 14.50 4.60 15.17Q5.23 15.84 6.19 15.84L6.19 15.84Q6.82 15.84 7.31 15.24Q7.80 14.64 7.80 13.92L7.80 13.92Q7.80 13.25 7.46 12.70Q7.13 12.14 6.60 11.81L6.60 11.81L3.46 9.94Q2.09 9.17 1.27 7.99Q0.46 6.82 0.46 5.35L0.46 5.35Q0.46 3.79 1.19 2.57Q1.92 1.34 3.18 0.67Q4.44 0 6.02 0L6.02 0Q7.87 0 9.17 0.91Q10.46 1.82 11.09 3.62L11.09 3.62L8.11 4.97Q8.02 4.78 7.70 4.10Q7.39 3.43 6.95 3.13Q6.50 2.83 5.86 2.83L5.86 2.83Q5.06 2.83 4.64 3.34Q4.22 3.84 4.22 4.63L4.22 4.63Q4.22 5.21 4.55 5.68Q4.87 6.14 5.33 6.41L5.33 6.41L8.23 8.11Q11.45 9.94 11.62 12.91L11.62 12.91Q11.62 14.62 10.86 15.92Q10.10 17.23 8.80 17.95Q7.49 18.67 5.88 18.67L5.88 18.67ZM18.31 18.60Q16.68 18.60 15.55 17.77Q14.42 16.94 14.42 14.83L14.42 14.83L14.42 7.37L12.55 7.37L12.70 4.82L14.52 4.82L14.86 1.90L17.78 1.49L17.78 4.82L20.57 4.82L20.42 7.37L17.81 7.37L17.81 14.81Q17.81 15.53 18.17 15.84Q18.53 16.15 19.22 16.15L19.22 16.15Q19.61 16.15 20.52 16.01L20.52 16.01L20.52 18.34Q20.42 18.36 19.76 18.48Q19.10 18.60 18.31 18.60L18.31 18.60ZM24.55 18.65Q23.69 18.65 22.99 18.11Q22.30 17.57 21.91 16.64Q21.53 15.72 21.53 14.57L21.53 14.57Q21.53 11.95 23.32 10.88Q25.10 9.82 27.48 9.67L27.48 9.67Q27.48 8.38 27.31 7.75Q27.14 7.13 26.50 7.13L26.50 7.13Q25.94 7.13 25.66 7.56Q25.37 7.99 25.30 8.66L25.30 8.66L22.01 8.09Q22.25 6.24 23.52 5.45Q24.79 4.66 26.50 4.66L26.50 4.66Q28.68 4.66 29.77 5.81Q30.86 6.96 30.86 8.81L30.86 8.81L30.86 15.79Q30.86 16.92 31.22 18.19L31.22 18.19L27.94 18.48L27.55 16.82Q27.12 17.59 26.28 18.12Q25.44 18.65 24.55 18.65L24.55 18.65ZM26.11 16.25Q26.52 16.25 26.80 16.06Q27.07 15.86 27.48 15.43L27.48 15.43L27.48 11.69Q26.28 11.69 25.56 12.34Q24.84 12.98 24.84 14.35L24.84 14.35Q24.84 15.26 25.16 15.76Q25.49 16.25 26.11 16.25L26.11 16.25ZM33.65 18.48L33.65 5.11L37.01 4.82L37.01 7.01Q37.73 5.98 38.80 5.34Q39.86 4.70 41.52 4.70L41.52 4.70L41.52 7.99Q40.66 7.99 39.25 8.29Q37.85 8.59 37.01 9.34L37.01 9.34L37.01 18.19L33.65 18.48ZM47.95 18.60Q46.32 18.60 45.19 17.77Q44.06 16.94 44.06 14.83L44.06 14.83L44.06 7.37L42.19 7.37L42.34 4.82L44.16 4.82L44.50 1.90L47.42 1.49L47.42 4.82L50.21 4.82L50.06 7.37L47.45 7.37L47.45 14.81Q47.45 15.53 47.81 15.84Q48.17 16.15 48.86 16.15L48.86 16.15Q49.25 16.15 50.16 16.01L50.16 16.01L50.16 18.34Q50.06 18.36 49.40 18.48Q48.74 18.60 47.95 18.60L47.95 18.60ZM58.06 18.34L58.06 0.34L61.75 0.34Q65.30 0.34 67.06 2.59Q68.81 4.85 68.81 9.41L68.81 9.41Q68.81 11.83 68.15 13.85Q67.49 15.86 66.05 17.10Q64.61 18.34 62.38 18.34L62.38 18.34L58.06 18.34ZM61.56 15.53L62.06 15.53Q63.89 15.53 64.60 13.96Q65.30 12.38 65.30 10.08L65.30 10.08L65.30 9.26Q65.30 7.61 65.10 6.32Q64.90 5.04 64.16 4.09Q63.43 3.14 61.97 3.14L61.97 3.14L61.56 3.14L61.56 15.53ZM75.43 18.65Q73.03 18.65 71.76 16.74Q70.49 14.83 70.49 11.66L70.49 11.66Q70.49 8.45 71.78 6.55Q73.08 4.66 75.55 4.66L75.55 4.66Q77.90 4.66 79.15 6.55Q80.40 8.45 80.40 11.66L80.40 11.66Q80.40 11.86 80.33 11.94Q80.26 12.02 80.26 12.05L80.26 12.05L73.85 12.05Q73.85 13.61 74.26 14.89Q74.66 16.18 75.50 16.18L75.50 16.18Q76.44 16.18 76.90 15.10Q77.35 14.02 77.38 13.97L77.38 13.97L79.92 14.93Q79.42 16.66 78.31 17.65Q77.21 18.65 75.43 18.65L75.43 18.65ZM73.85 10.10L77.09 10.10Q77.09 8.66 76.70 7.82Q76.32 6.98 75.50 6.98L75.50 6.98Q75.10 6.98 74.71 7.39Q74.33 7.80 74.09 8.52Q73.85 9.24 73.85 10.10L73.85 10.10ZM87.94 18.34L84.84 18.34L81.07 5.11L85.10 4.82L86.81 13.46L88.75 5.26L91.80 4.97L87.94 18.34Z" transform="translate(36, 8.664)"></path></svg>